<svg xmlns="http://www.w3.org/2000/svg" version="1.1" xmlns:xlink="http://www.w3.org/1999/xlink" width="512" height="512" x="0" y="0" viewBox="0 0 100 100" style="enable-background:new 0 0 512 512" xml:space="preserve" class=""><rect width="100" height="100" rx="20" ry="20" fill="#ffffff" shape="rounded"></rect><g transform="matrix(0.7,0,0,0.7,15,14.999995994567875)"><path d="m92.079 28.023-7.094 7.094a37.778 37.778 0 0 1 3.04 14.87c0 20.951-17.049 38-38 38s-38-17.049-38-38 17.05-38 38-38c5.27 0 10.286 1.09 14.871 3.04l7.093-7.093c-6.586-3.445-14.034-5.421-21.964-5.421C23.805 2.487 2.5 23.793 2.5 49.987s21.305 47.5 47.5 47.5 47.5-21.305 47.5-47.5c0-7.929-1.976-15.402-5.421-21.964z" fill="#000000" opacity="1" data-original="#000000"></path><path d="M50 30.987c1.697 0 3.293.304 4.864.71l7.397-7.398c-3.724-1.773-7.878-2.812-12.261-2.812-15.707 0-28.5 12.794-28.5 28.5s12.793 28.5 28.5 28.5 28.5-12.793 28.5-28.5c0-4.382-1.039-8.537-2.812-12.261l-7.397 7.397c.405 1.571.709 3.167.709 4.864 0 10.488-8.537 19-19 19-10.488 0-19-8.537-19-19 0-10.488 8.512-19 19-19z" fill="#000000" opacity="1" data-original="#000000"></path><path d="M68.873 24.4 52.432 40.843c-.785-.203-1.596-.355-2.432-.355-5.334 0-9.646 4.404-9.496 9.771.138 4.956 4.27 9.087 9.225 9.226 5.368.15 9.771-4.163 9.771-9.497 0-.836-.152-1.646-.355-2.432l16.442-16.441 4.285 1.429c.448.149.941.032 1.275-.301l14.825-14.826a1.246 1.246 0 0 0-.487-2.062l-8.144-2.708-2.707-8.142a1.246 1.246 0 0 0-2.063-.487L67.767 18.843a1.246 1.246 0 0 0-.302 1.269z" fill="#000000" opacity="1" data-original="#000000"></path></g></svg>
